<?xml version="1.0" encoding="UTF-8"?>
<svg version="1.1" xmlns="http://www.w3.org/2000/svg" width="1196" height="345">
<path d="M0 0 C1.16181486 -0.00256327 1.16181486 -0.00256327 2.34710073 -0.00517833 C4.92042134 -0.00845028 7.49347622 0.00249226 10.06677246 0.01345825 C11.92014561 0.01402286 13.7735192 0.01370483 15.62689209 0.01257324 C20.64282677 0.01200068 25.65866532 0.02373944 30.67457771 0.03772116 C35.92228835 0.05024454 41.17000133 0.05140029 46.41772461 0.05377197 C56.34811661 0.05998201 66.27846445 0.07638641 76.20883703 0.09647095 C87.51714462 0.11884476 98.82545435 0.12982711 110.13377857 0.13986182 C133.38946245 0.16075304 156.64510717 0.19591978 179.90075684 0.24050903 C179.99451205 15.79237591 180.06488793 31.34419096 180.10800552 46.89627361 C180.12856467 54.11861855 180.15655665 61.34078712 180.20251465 68.5630188 C180.24258761 74.86347085 180.26823786 81.16379506 180.27711082 87.46437103 C180.28229143 90.79559023 180.29647652 94.12615641 180.32367706 97.45731163 C180.35293624 101.19084247 180.35670331 104.92362908 180.3548584 108.65725708 C180.3692395 109.74195786 180.38362061 110.82665863 180.3984375 111.94422913 C180.32595306 125.60077626 175.81200903 137.5383565 166.68200684 147.71316528 C157.59015541 156.55410522 146.81559929 161.41123984 134.206604 161.36076355 C133.03766503 161.36204519 133.03766503 161.36204519 131.84511113 161.36335272 C129.23180044 161.36500086 126.61855381 161.35949701 124.00524902 161.35403442 C122.13276165 161.35375238 120.26027417 161.35391062 118.38778687 161.35447693 C113.30139943 161.35476424 108.21503549 161.34887813 103.12865353 161.34190297 C97.81418412 161.33565849 92.4997142 161.33506477 87.1852417 161.33387756 C77.1201518 161.33076749 67.05507274 161.32255844 56.98998761 161.31252807 C45.53183137 161.30135692 34.07367461 161.29585395 22.61551428 161.29083264 C-0.95607755 161.28037557 -24.52765975 161.26278236 -48.09924316 161.24050903 C-48.19299448 145.55824859 -48.26337233 129.87606473 -48.30649185 114.19359303 C-48.32705183 106.91071474 -48.35504543 99.62801134 -48.40100098 92.34524536 C-48.44107137 85.99205561 -48.4667236 79.63899262 -48.47559714 73.28568 C-48.48077818 69.92651714 -48.49496541 66.5680018 -48.52216339 63.20890236 C-48.55141861 59.44424024 -48.5551898 55.68031629 -48.55334473 51.91555786 C-48.56772583 50.82150635 -48.58210693 49.72745483 -48.59692383 48.60025024 C-48.53147434 36.16898386 -45.03292412 25.81856403 -37.09924316 16.24050903 C-36.59908691 15.60500122 -36.09893066 14.96949341 -35.58361816 14.31472778 C-26.92719978 4.45602907 -12.78490484 -0.10516982 0 0 Z M-27.09924316 27.24050903 C-30.7790047 33.10347837 -33.22783002 38.74189887 -33.21949768 45.70773315 C-33.22087234 46.59671799 -33.22224701 47.48570282 -33.22366333 48.40162659 C-33.22006805 49.36907303 -33.21647278 50.33651947 -33.21276855 51.33328247 C-33.21291458 52.35799149 -33.21306061 53.3827005 -33.21321106 54.4384613 C-33.21251437 57.82562374 -33.20473331 61.2127312 -33.19689941 64.59988403 C-33.19503437 66.94829274 -33.19361087 69.29670184 -33.19261169 71.64511108 C-33.18879332 77.8264778 -33.17896881 84.00782103 -33.16790771 90.18917847 C-33.157679 96.49665001 -33.15311094 102.80412534 -33.14807129 109.11160278 C-33.13734596 121.48791519 -33.12027766 133.86421016 -33.09924316 146.24050903 C-10.71559258 146.33404309 11.66802568 146.40453271 34.0518322 146.44775772 C44.44555071 146.4683633 54.83914763 146.4964456 65.23278809 146.54226685 C74.29424979 146.58219595 83.35562341 146.60795641 92.41717064 146.61686301 C97.21307859 146.62206747 102.00873459 146.63425803 106.80456161 146.66342926 C111.32387782 146.69069438 115.84283966 146.6989317 120.3622303 146.69293976 C122.01575843 146.69403505 123.66929911 146.70192266 125.32275581 146.71733093 C137.10658166 146.8217032 147.08361814 145.86326376 156.07653809 137.43582153 C163.48213042 128.52373826 165.05662596 119.34940277 165.01428223 108.21780396 C165.01450127 106.7097821 165.01450127 106.7097821 165.01472473 105.17129517 C165.01402911 101.85450061 165.00625308 98.5377625 164.99841309 95.22097778 C164.99654766 92.91883881 164.99512435 90.61669945 164.99412537 88.31455994 C164.99030999 82.25979514 164.98048804 76.20505438 164.96942139 70.15029907 C164.95918623 63.97008591 164.95462323 57.78986886 164.94958496 51.60964966 C164.93886492 39.48659223 164.92180022 27.36355263 164.90075684 15.24050903 C142.66476109 15.14694777 120.42879793 15.07647207 98.19264507 15.03326035 C87.86733598 15.01266051 77.54214939 14.98458928 67.21691895 14.93875122 C58.21441129 14.89880444 49.21199239 14.87305749 40.20939857 14.86415505 C35.44531596 14.85895357 30.68148721 14.84678216 25.91748619 14.81758881 C21.42689344 14.79029567 16.93665743 14.78209194 12.44598961 14.78807831 C10.80416928 14.78698426 9.16233614 14.77911348 7.52058792 14.76368713 C-6.16646062 14.64146478 -17.7655151 16.2574475 -27.09924316 27.24050903 Z " fill="#ffffff" transform="translate(204.0992431640625,111.75949096679688)"/>
<path d="M0 0 C7.92 0 15.84 0 24 0 C24.495 54.945 24.495 54.945 25 111 C27.97 107.7 30.94 104.4 34 101 C46.39035064 92.31066319 60.09678921 88.61548153 75.1875 90.625 C84.42148733 92.46448824 92.18191783 96.47981933 98 104 C102.18965043 110.82095528 103.14892631 116.57148288 103.11352539 124.53222656 C103.11367142 125.39112488 103.11381744 126.25002319 103.1139679 127.13494873 C103.11327196 129.97019996 103.10549445 132.80538526 103.09765625 135.640625 C103.09579094 137.60788945 103.09436757 139.57515436 103.09336853 141.54241943 C103.08955227 146.71766444 103.07972956 151.89288133 103.06866455 157.06811523 C103.0584313 162.35009379 103.0538668 167.63207689 103.04882812 172.9140625 C103.03810651 183.276056 103.02051689 193.63802126 103 204 C94.75 204 86.5 204 78 204 C77.98541748 201.80545166 77.97083496 199.61090332 77.95581055 197.34985352 C77.90532034 190.07346426 77.83870032 182.79728577 77.76428509 175.52110386 C77.71968678 171.11247675 77.68040786 166.70393981 77.65356445 162.29516602 C77.62742575 158.03504318 77.58694985 153.7752693 77.53681374 149.51536369 C77.52021612 147.89564311 77.50865782 146.27586228 77.50238609 144.6560688 C77.691447 130.50033912 77.691447 130.50033912 71.625 118.0625 C66.56004197 114.08289012 61.07160051 112.64074113 54.609375 113.2109375 C45.67068856 114.66415953 39.37053026 118.67800591 33.60546875 125.6171875 C28.42886722 133.3002214 25.93235516 141.79859167 25.79467773 150.98364258 C25.77473251 152.16448929 25.75478729 153.345336 25.73423767 154.56196594 C25.70916893 156.45908577 25.70916893 156.45908577 25.68359375 158.39453125 C25.66281265 159.69702316 25.64203156 160.99951508 25.62062073 162.34147644 C25.56561816 165.79209263 25.51611341 169.24276635 25.46777344 172.69348145 C25.41739836 176.21953406 25.36179613 179.74550387 25.30664062 183.27148438 C25.1993262 190.18091919 25.09830623 197.09043121 25 204 C16.75 204 8.5 204 0 204 C0 136.68 0 69.36 0 0 Z " fill="#ffffff" transform="translate(485,66)"/>
<path d="M0 0 C8.25 0 16.5 0 25 0 C25.33 44.55 25.66 89.1 26 135 C31.28 130.71 36.56 126.42 42 122 C49 116.5 49 116.5 52.4140625 113.83203125 C57.10164113 110.14930807 61.7137465 106.37314796 66.3203125 102.58984375 C70.78943614 98.93328805 75.3559154 95.43142001 80 92 C84.05730287 93.87554567 87.02454717 96.58474063 90.25 99.625 C90.80429687 100.140625 91.35859375 100.65625 91.9296875 101.1875 C93.2902712 102.45425035 94.64565837 103.72657815 96 105 C94.68312034 108.95063899 92.14629117 110.46266813 88.9375 112.875 C87.66297012 113.85274435 86.38957855 114.8319739 85.1171875 115.8125 C84.44655273 116.328125 83.77591797 116.84375 83.08496094 117.375 C78.85824886 120.66926178 74.73117474 124.08827257 70.59545898 127.49560547 C66.50806314 130.84245889 62.32961021 133.97206615 58 137 C59.3348651 140.64171936 60.9508862 143.66745094 63.125 146.875 C63.83785156 147.926875 64.55070313 148.97875 65.28515625 150.0625 C69.37224122 156.00849367 73.50573555 161.92246945 77.62988281 167.84277344 C82.56174525 174.92530392 87.48581854 182.01292083 92.375 189.125 C93.01123291 190.04265137 93.64746582 190.96030273 94.30297852 191.90576172 C95.18554321 193.19377686 95.18554321 193.19377686 96.0859375 194.5078125 C96.6020459 195.25691895 97.1181543 196.00602539 97.64990234 196.77783203 C99.06856695 199.11285649 100.05659548 201.44013519 101 204 C75.31341247 206.513081 75.31341247 206.513081 68.77490234 202.70361328 C65.37850436 199.17718001 63.69837006 194.81929476 61.97070312 190.30078125 C60.32817792 186.40763299 57.93017271 183.04489774 55.5625 179.5625 C54.64791085 178.16089213 53.7364694 176.75722546 52.828125 175.3515625 C52.36986328 174.64676758 51.91160156 173.94197266 51.43945312 173.21582031 C48.89137668 169.29344212 46.35255893 165.36507284 43.8125 161.4375 C42.88154913 159.99867287 41.95056328 158.55986837 41.01953125 157.12109375 C40.35308594 156.09113281 39.68664062 155.06117188 39 154 C35.07606155 156.24900431 31.87865094 158.7602538 28.55078125 161.79296875 C27 163 27 163 25 163 C25 176.53 25 190.06 25 204 C16.75 204 8.5 204 0 204 C0 136.68 0 69.36 0 0 Z " fill="#ffffff" transform="translate(858,66)"/>
<path d="M0 0 C2.71767966 2.30138769 5.34564587 4.66317701 7.93359375 7.109375 C9.85743927 9.04280915 9.85743927 9.04280915 12 10 C12.66 5.71 13.32 1.42 14 -3 C21.59 -3 29.18 -3 37 -3 C37 32.97 37 68.94 37 106 C28.75 106 20.5 106 12 106 C11.505 98.575 11.505 98.575 11 91 C10.13375 91.99 9.2675 92.98 8.375 94 C-1.86001199 104.17298161 -15.02034422 108.94579462 -29.25 109.4375 C-46.31745348 109.05199284 -60.13381459 103.37155957 -72 91 C-81.53800666 79.15408167 -84.35773607 66.60635674 -84.3125 51.6875 C-84.32861328 50.63626953 -84.34472656 49.58503906 -84.36132812 48.50195312 C-84.37071645 33.22714143 -79.57659433 19.0079329 -68.9296875 7.76953125 C-51.01469272 -8.65859149 -20.81976091 -15.13493258 0 0 Z M-49.1796875 24.09375 C-55.95427589 31.18816874 -58.96337092 40.13954957 -59.4375 49.875 C-59.03498236 60.42431656 -55.24713272 69.4150772 -48 77 C-47.18015625 77.86238281 -47.18015625 77.86238281 -46.34375 78.7421875 C-40.14889564 84.61561074 -31.54859932 87.96363959 -23.01953125 88.01953125 C-12.05374019 87.31163 -4.08209536 84.93574217 4.01953125 77.29296875 C11.00732793 69.20256116 12.23930827 60.71923266 12.375 50.4375 C12.41238281 49.39013672 12.44976563 48.34277344 12.48828125 47.26367188 C12.58652923 38.48139439 10.30967865 32.4745759 5.11328125 25.44921875 C-10.5691463 10.10697401 -32.96158056 9.08405103 -49.1796875 24.09375 Z " fill="#ffffff" transform="translate(681,164)"/>
<path d="M0 0 C1.02673828 0.72509766 1.02673828 0.72509766 2.07421875 1.46484375 C8.48042838 6.49744836 12.28446224 13.04062164 14 21 C14.08968848 23.82209739 14.12622017 26.61872131 14.11352539 29.44042969 C14.11367142 30.28957443 14.11381744 31.13871918 14.1139679 32.01359558 C14.11327201 34.8163815 14.10549476 37.61910071 14.09765625 40.421875 C14.09579092 42.36671919 14.09436756 44.31156386 14.09336853 46.25640869 C14.08955242 51.37247009 14.07972984 56.48850305 14.06866455 61.60455322 C14.05843098 66.82620865 14.05386674 72.04786868 14.04882812 77.26953125 C14.03810678 87.51303533 14.02051728 97.75651085 14 108 C5.42 108 -3.16 108 -12 108 C-12.01458252 105.66856934 -12.02916504 103.33713867 -12.04418945 100.93505859 C-12.09457389 93.22359339 -12.1611758 85.51232929 -12.23571491 77.80106163 C-12.28040231 73.12666937 -12.31966204 68.45236394 -12.34643555 63.77783203 C-12.37248479 59.26486078 -12.41289867 54.75222396 -12.46318626 50.23945999 C-12.47984402 48.51956982 -12.4913651 46.79962181 -12.49761391 45.07966232 C-12.50726699 42.6665229 -12.53533972 40.25423692 -12.56762695 37.84130859 C-12.56619186 37.13352264 -12.56475677 36.42573669 -12.5632782 35.69650269 C-12.67827904 29.60118093 -14.43408594 25.72250547 -18.5 21.25 C-23.30796265 17.56349762 -29.43789583 16.81717677 -35.359375 17.12109375 C-43.6486763 18.54673599 -50.79927145 22.8924721 -55.875 29.5625 C-62.238363 39.8699365 -63.59762715 50.48707545 -63.609375 62.39453125 C-63.62591125 63.70789963 -63.64244751 65.02126801 -63.65948486 66.37443542 C-63.70263422 69.81842036 -63.72303864 73.26215333 -63.73822021 76.70635986 C-63.75798373 80.23993364 -63.79972057 83.77324906 -63.83984375 87.30664062 C-63.91659985 94.20458969 -63.95745555 101.10141823 -64 108 C-72.58 108 -81.16 108 -90 108 C-90 72.03 -90 36.06 -90 -1 C-82.41 -1 -74.82 -1 -67 -1 C-65.58365167 1.83269666 -65.6536995 4.47466438 -65.4375 7.625 C-65.31181641 9.40777344 -65.31181641 9.40777344 -65.18359375 11.2265625 C-65.12300781 12.14179688 -65.06242188 13.05703125 -65 14 C-64.34 14 -63.68 14 -63 14 C-61.95244255 12.85423404 -60.96190283 11.6560644 -60 10.4375 C-52.50973179 1.7296779 -44.09601893 -2.40905142 -33 -5 C-32.25234375 -5.1753125 -31.5046875 -5.350625 -30.734375 -5.53125 C-21.11027105 -7.14751173 -8.02925539 -5.78178887 0 0 Z " fill="#ffffff" transform="translate(826,162)"/>
<path d="M0 0 C1.37744385 0.01522705 1.37744385 0.01522705 2.78271484 0.03076172 C15.90474684 0.32977994 25.7419362 4.11962413 36.625 11.375 C35.98326346 15.49026292 33.75513842 18.67888435 31.5625 22.125 C31.18544922 22.72699219 30.80839844 23.32898438 30.41992188 23.94921875 C29.49306837 25.42749143 28.55967611 26.90166089 27.625 28.375 C25.18615334 27.20497762 23.14834227 26.03136303 20.9375 24.4375 C13.64268352 19.89544446 6.19475145 18.22816562 -2.375 19.375 C-6.19588107 20.58453216 -9.40212357 21.81586253 -11.57421875 25.296875 C-13.01102488 29.02556214 -12.83882868 32.7515996 -11.75 36.5625 C-6.731901 43.17726686 2.3613612 44.81625591 9.86328125 47.19921875 C19.92337884 50.52607579 31.81580124 55.57686289 36.9375 65.4375 C40.86725426 73.81102702 40.936401 83.46358667 38 92.1875 C33.84368625 102.13090339 27.12932961 109.28031422 17.0390625 113.44140625 C11.95235294 115.0613276 6.93885989 115.95326509 1.625 116.375 C0.98691406 116.42785156 0.34882812 116.48070312 -0.30859375 116.53515625 C-15.3096806 117.18737742 -29.87859643 112.67550899 -41.44140625 103.27734375 C-43.375 101.375 -43.375 101.375 -44.375 98.375 C-42.80652656 95.85664732 -41.21865137 93.54581064 -39.4375 91.1875 C-38.95603516 90.53330078 -38.47457031 89.87910156 -37.97851562 89.20507812 C-36.78653616 87.58823469 -35.58193447 85.98071072 -34.375 84.375 C-31.09735484 85.9106799 -28.19051175 87.79749212 -25.1875 89.8125 C-16.23018645 95.5072159 -7.68969933 98.16863915 2.9609375 95.87109375 C7.51848721 94.3886194 10.40305336 92.63373107 12.625 88.375 C13.58318584 83.43806153 13.39944686 80.53447432 10.55859375 76.28125 C7.63665629 73.0117716 4.2294148 71.63838234 0.125 70.3125 C-1.3034822 69.81147376 -2.73186627 69.31016769 -4.16015625 68.80859375 C-5.56509551 68.33070371 -6.97004308 67.8528381 -8.375 67.375 C-21.05869753 62.90081544 -31.67954111 58.1398566 -38.25 45.875 C-41.0606815 37.22415994 -40.58383338 26.79133402 -36.69921875 18.5859375 C-31.04936097 9.15284163 -23.52455522 4.00684933 -13.10180664 0.99243164 C-8.72117697 0.00052436 -4.47534778 -0.07206279 0 0 Z " fill="#ffffff" transform="translate(999.375,156.625)"/>
<path d="M0 0 C8.58 0 17.16 0 26 0 C26 15.84 26 31.68 26 48 C35.57 48 45.14 48 55 48 C55 54.6 55 61.2 55 68 C45.43 68 35.86 68 26 68 C26 97.37 26 126.74 26 157 C17.42 157 8.84 157 0 157 C0 127.63 0 98.26 0 68 C-6.6 68 -13.2 68 -20 68 C-20 61.4 -20 54.8 -20 48 C-13.4 48 -6.8 48 0 48 C0 32.16 0 16.32 0 0 Z " fill="#ffffff" transform="translate(424,113)"/>
<path d="M0 0 C4.11060201 1.58100077 6.21420529 3.90405847 9.1953125 7.08203125 C11.05273278 9.04185683 12.95145611 10.8072124 15 12.5625 C18.48078231 15.55679502 21.87421565 18.63845772 25.25 21.75 C29.21047227 25.39631497 33.20436404 28.99467544 37.2734375 32.51953125 C39.54197508 34.50562246 41.76949746 36.53380483 44 38.5625 C45.74646771 40.12894719 47.49668683 41.69121869 49.25 43.25 C49.74081055 43.68844238 50.23162109 44.12688477 50.73730469 44.57861328 C58.45308875 51.42373512 65.06097264 57.09740216 75.91015625 56.578125 C86.51078661 55.09155914 92.91700186 48.38948847 100.25 41.25 C101.61422065 40.02950974 102.98775797 38.81925876 104.375 37.625 C109.0564581 33.56257768 113.64921695 29.40329047 118.25 25.25 C120.74760234 23.00137982 123.24596552 20.75362409 125.74609375 18.5078125 C127.43148281 16.9880701 129.1110851 15.46188822 130.78515625 13.9296875 C134.81378285 10.25597854 138.8760409 6.61833673 143.0625 3.125 C143.74957031 2.54492188 144.43664062 1.96484375 145.14453125 1.3671875 C147.25 0.25 147.25 0.25 149.88671875 0.4453125 C152.25 1.25 152.25 1.25 154.25 3.25 C154.71875 6.00390625 154.71875 6.00390625 154.25 9.25 C152.46372873 11.50963316 150.84739186 13.2702235 148.75 15.1875 C148.19900635 15.71327637 147.6480127 16.23905273 147.08032227 16.78076172 C143.57400191 20.10307842 139.98918835 23.33981139 136.3125 26.47265625 C133.72433035 28.70299184 131.20885493 31.00696757 128.6875 33.3125 C124.60386482 37.03782178 120.47303826 40.68387881 116.25 44.25 C117.81098042 48.24536654 120.60840789 50.61066502 123.75 53.375 C129.60813261 58.68127954 135.34655409 64.1010653 141 69.625 C141.79857422 70.38570801 142.59714844 71.14641602 143.41992188 71.93017578 C148.98362925 77.41064469 148.98362925 77.41064469 150.3359375 81.671875 C150.25 84.25 150.25 84.25 149.125 86.125 C146.60471084 87.6371735 145.16272709 87.57864959 142.25 87.25 C140.03564453 85.74047852 140.03564453 85.74047852 137.7578125 83.56640625 C136.88930664 82.74414551 136.02080078 81.92188477 135.12597656 81.07470703 C134.16547541 80.13501743 133.2069008 79.19335563 132.25 78.25 C131.73900757 77.74974304 131.22801514 77.24948608 130.70153809 76.73406982 C126.81047797 72.91703331 122.96443823 69.05634433 119.125 65.1875 C117.96638288 64.02385247 116.8075301 62.86043954 115.6484375 61.69726562 C112.84624236 58.88419935 110.04722686 56.06800626 107.25 53.25 C105.99527319 54.18379427 104.74156961 55.1189635 103.48828125 56.0546875 C102.44087769 56.83561768 102.44087769 56.83561768 101.37231445 57.63232422 C99.35487644 59.17006082 97.39500383 60.76214237 95.4375 62.375 C87.20519082 68.4730068 78.344614 70.32187434 68.25 69.25 C57.36044272 67.56080663 49.34679931 60.25263724 41.25 53.25 C40.198125 54.31927734 40.198125 54.31927734 39.125 55.41015625 C38.16680707 56.37774323 37.20846561 57.34518313 36.25 58.3125 C35.79238281 58.77849609 35.33476562 59.24449219 34.86328125 59.72460938 C32.1316428 62.47495768 29.32536859 65.07007561 26.37890625 67.58984375 C23.49116755 70.08529752 20.82326821 72.6826943 18.21484375 75.46875 C17.55033203 76.17257813 16.88582031 76.87640625 16.20117188 77.6015625 C14.84124593 79.05250191 13.49512494 80.51648656 12.16210938 81.9921875 C10.26602368 83.9748777 8.5267408 85.71807297 6.25 87.25 C2.31640625 87.28125 2.31640625 87.28125 -0.75 86.25 C-1.75 85.25 -1.75 85.25 -2.27734375 82.68896484 C-1.4621239 77.37267467 1.90370393 74.85280288 5.6875 71.2265625 C6.81949829 70.10729874 6.81949829 70.10729874 7.97436523 68.96542358 C10.38585575 66.58749524 12.81737044 64.23127976 15.25 61.875 C16.88938444 60.26571085 18.52742271 58.65504912 20.1640625 57.04296875 C24.17722888 53.0959244 28.20703472 49.16650313 32.25 45.25 C28.22272081 41.20247024 24.11425476 37.26670212 19.9375 33.375 C19.26887939 32.75149658 18.60025879 32.12799316 17.91137695 31.4855957 C14.62251404 28.42738968 11.32454996 25.38728736 7.9375 22.4375 C7.35226563 21.92703125 6.76703125 21.4165625 6.1640625 20.890625 C4.65117733 19.59386628 3.12147307 18.31673139 1.5859375 17.046875 C0.67070312 16.26828125 -0.24453125 15.4896875 -1.1875 14.6875 C-2.03183594 13.98496094 -2.87617188 13.28242188 -3.74609375 12.55859375 C-6.18433628 9.74962428 -6.59981878 7.9344459 -6.75 4.25 C-4.76748502 1.15727664 -3.6712166 0.33374696 0 0 Z " fill="#ffffff" transform="translate(195.75,148.75)"/>
<path d="M0 0 C5.23900837 3.84906738 9.00020632 10.56746342 10.15625 16.9375 C11.02574429 27.58524157 9.5982109 34.86296109 2.96875 43.25 C-2.87195099 49.4751208 -9.70119699 51.50119997 -18.08203125 51.96875 C-26.13407911 51.87763772 -33.37734123 49.84603591 -39.84375 44.9375 C-47.100401 37.40114939 -48.310882 29.88997596 -48.16015625 19.640625 C-47.5159812 12.10139107 -44.31091223 6.16695953 -38.84375 0.9375 C-26.19276523 -6.65309086 -13.06989806 -7.53180566 0 0 Z M-32.09375 12.125 C-34.88751022 16.61497179 -36.33795085 21.03818834 -35.43359375 26.34375 C-33.58915421 32.39109275 -31.22284033 36.5380351 -25.65625 39.8125 C-20.96790496 41.19594608 -17.50392302 41.51749017 -12.84375 39.9375 C-8.91250943 37.41989045 -5.83786738 34.51151918 -3.34375 30.5625 C-2.08060494 23.93098844 -2.28601155 18.63606656 -5.62890625 12.6640625 C-7.81239369 9.56084241 -10.48724227 7.61575386 -13.84375 5.9375 C-21.88313542 5.0554811 -26.22553531 6.41979127 -32.09375 12.125 Z " fill="#ffffff" transform="translate(1121.84375,220.0625)"/>
<path d="M0 0 C1.28483276 -0.00945648 2.56966553 -0.01891296 3.89343262 -0.02865601 C5.28768219 -0.02328598 6.68192893 -0.01713295 8.07617188 -0.01025391 C9.51436511 -0.01227639 10.95255734 -0.01518928 12.39074707 -0.01895142 C15.40008337 -0.0233666 18.40915193 -0.01696998 21.41845703 -0.00292969 C25.26868249 0.01416208 29.11828051 0.00431653 32.96848297 -0.01364708 C35.93683569 -0.02450691 38.90504057 -0.02102857 41.87339783 -0.0132637 C43.29272029 -0.01126776 44.71205633 -0.01369966 46.13136292 -0.02070236 C48.11752045 -0.02835215 50.10372528 -0.01461801 52.08984375 0 C53.21837769 0.00238678 54.34691162 0.00477356 55.50964355 0.00723267 C58.93293861 0.4368827 60.81499854 1.30260121 63.54492188 3.38818359 C64.66992188 6.26318359 64.66992188 6.26318359 64.54492188 9.38818359 C61.99877175 12.62965083 60.48118936 14.20181736 56.38902283 15.01637268 C55.20417801 15.01733444 54.01933319 15.0182962 52.79858398 15.01928711 C52.14103622 15.02644241 51.48348846 15.03359772 50.80601501 15.04096985 C48.64404695 15.05780603 46.48416753 15.03849066 44.32226562 15.01708984 C42.81441578 15.01791893 41.30656603 15.02037983 39.79872131 15.0243988 C36.64377531 15.02725314 33.48954068 15.01259086 30.3347168 14.98510742 C26.2936364 14.95099474 22.25382517 14.95705533 18.21268368 14.97577 C15.1010533 14.98634425 11.98971767 14.97739905 8.8781147 14.96238518 C7.38819822 14.95720792 5.89825091 14.95767966 4.40833855 14.96393013 C2.32550848 14.96938917 0.24448886 14.94899151 -1.83813477 14.92163086 C-3.02218399 14.91543228 -4.20623322 14.9092337 -5.42616272 14.90284729 C-9.07574383 14.28272205 -10.29696306 13.35910412 -12.45507812 10.38818359 C-12.51757812 6.82568359 -12.51757812 6.82568359 -11.45507812 3.38818359 C-7.66409017 0.42513038 -4.73967058 0.01002411 0 0 Z " fill="#ffffff" transform="translate(76.455078125,144.61181640625)"/>
<path d="M0 0 C1.30823227 -0.01268417 2.61646454 -0.02536835 3.96434021 -0.03843689 C5.39427854 -0.03638538 6.82421579 -0.0333973 8.25415039 -0.02954102 C9.72001895 -0.03410174 11.18588536 -0.03940699 12.65174866 -0.04542542 C15.72430099 -0.05436212 18.79659349 -0.05192751 21.86914062 -0.04199219 C25.80484005 -0.0305054 29.73964187 -0.05070546 33.67522335 -0.07990932 C36.70274037 -0.09826523 39.73004208 -0.09798011 42.75760078 -0.0922718 C44.20846376 -0.09211849 45.65934123 -0.09817118 47.11015129 -0.11056328 C49.13979037 -0.12545575 51.16957697 -0.11217523 53.19921875 -0.09765625 C54.3537706 -0.09749008 55.50832245 -0.09732391 56.69786072 -0.09715271 C60.31191528 0.51347154 61.51791115 1.4712943 63.66430664 4.40405273 C63.78930664 7.96655273 63.78930664 7.96655273 62.66430664 11.40405273 C58.55334363 13.99066186 55.37052402 14.77928887 50.5546875 14.77636719 C49.37003403 14.78259598 48.18538055 14.78882477 46.96482849 14.79524231 C45.69905472 14.78603256 44.43328094 14.77682281 43.12915039 14.76733398 C41.81773575 14.76783249 40.50632111 14.76833099 39.15516663 14.7688446 C36.38718061 14.76875518 33.61948767 14.75838634 30.8515625 14.74023438 C27.31197578 14.71752579 23.7728158 14.71701029 20.23317623 14.72375202 C16.84428599 14.72790482 13.45552596 14.71591542 10.06665039 14.70483398 C8.79885239 14.70574539 7.53105438 14.7066568 6.22483826 14.70759583 C5.04333694 14.69806381 3.86183563 14.6885318 2.64453125 14.67871094 C1.60783798 14.67410355 0.57114471 14.66949615 -0.4969635 14.66474915 C-3.4907165 14.38981609 -5.65866839 13.75903523 -8.33569336 12.40405273 C-9.86061334 9.35421278 -9.57131884 6.76171584 -9.33569336 3.40405273 C-6.91294143 -0.26888766 -4.15998373 0.019481 0 0 Z " fill="#ffffff" transform="translate(40.335693359375,185.595947265625)"/>
<path d="M0 0 C1.43653931 -0.00786278 1.43653931 -0.00786278 2.90209961 -0.0158844 C4.92267896 -0.02229492 6.94329567 -0.02098019 8.96386719 -0.01245117 C12.05210853 -0.00393491 15.13850345 -0.03272649 18.2265625 -0.06445312 C20.19270778 -0.06606515 22.15885633 -0.06548759 24.125 -0.0625 C25.04595459 -0.07373398 25.96690918 -0.08496796 26.91577148 -0.09654236 C31.12047237 -0.05091044 33.47683005 0.08534383 37.15625 2.27319336 C39.0625 4.43359375 39.0625 4.43359375 39.5 7.49609375 C39.0625 10.43359375 39.0625 10.43359375 37.0625 13.43359375 C34.27175837 14.36384096 32.54166725 14.56947554 29.65454102 14.59472656 C28.3228463 14.60913788 28.3228463 14.60913788 26.96424866 14.62384033 C26.00796066 14.62809021 25.05167267 14.63234009 24.06640625 14.63671875 C23.08131577 14.64241882 22.09622528 14.6481189 21.08128357 14.6539917 C18.99747796 14.66343809 16.91365744 14.66997425 14.82983398 14.67382812 C11.64084919 14.68354546 8.45250572 14.71457721 5.26367188 14.74609375 C3.23958716 14.75262276 1.21549784 14.75787363 -0.80859375 14.76171875 C-1.76285751 14.77406555 -2.71712128 14.78641235 -3.70030212 14.7991333 C-4.59125076 14.7961322 -5.4821994 14.7931311 -6.40014648 14.79003906 C-7.18163559 14.79368469 -7.96312469 14.79733032 -8.76829529 14.80108643 C-11.51205497 14.33625635 -12.89895329 13.29409811 -14.9375 11.43359375 C-15.50390625 9.49609375 -15.50390625 9.49609375 -15.5 7.43359375 C-15.52191406 6.75296875 -15.54382813 6.07234375 -15.56640625 5.37109375 C-14.9375 3.43359375 -14.9375 3.43359375 -13.01928711 1.83959961 C-8.65827603 -0.15002749 -4.7415292 -0.01511412 0 0 Z " fill="#ffffff" transform="translate(82.9375,225.56640625)"/>
<path d="M0 0 C4.29 0 8.58 0 13 0 C13 17.49 13 34.98 13 53 C8.71 53 4.42 53 0 53 C0 35.51 0 18.02 0 0 Z " fill="#ffffff" transform="translate(1052,217)"/>
<path d="M0 0 C2.48695054 0.05348281 3.88379953 0.12939977 6.125 1.25 C7.75541883 4.51083766 7.78464122 7.69238446 7.125 11.25 C4.92787161 13.95415801 3.56558039 14.19492745 0.125 14.625 C-3.23871258 14.20453593 -4.57442263 13.72099051 -6.875 11.25 C-7.8125 8.875 -7.8125 8.875 -7.875 6.25 C-4.90833333 0.31666667 -4.90833333 0.31666667 0 0 Z " fill="#ffffff" transform="translate(1058.875,191.75)"/>
<path d="M0 0 C3.6875 0.375 3.6875 0.375 6.1875 2.5 C7.6875 5.375 7.6875 5.375 7.625 8.5 C6.20101351 12.86689189 6.20101351 12.86689189 3.6875 14.375 C-2.29963826 15.0164791 -2.29963826 15.0164791 -5.1875 13.1875 C-6.66655406 10.80457957 -7.17841307 9.19082552 -7.3125 6.375 C-4.3725 0.495 -4.3725 0.495 0 0 Z " fill="#ffffff" transform="translate(1038.3125,255.625)"/>
</svg>
